<svg width="40" height="40" viewBox="0 0 40 40" fill="none" xmlns="http://www.w3.org/2000/svg">
<path d="M20.31 24.2533C19.2817 24.2533 18.6817 25.2316 18.6817 26.5416C18.6817 27.86 19.3 28.7916 20.32 28.7916C21.3483 28.7916 21.9383 27.8116 21.9383 26.5016C21.9383 25.2916 21.3583 24.2533 20.31 24.2533Z" fill="#FDB00E"/>
<path d="M23.3333 3.33337H10C9.11594 3.33337 8.2681 3.68456 7.64297 4.30968C7.01785 4.93481 6.66666 5.78265 6.66666 6.66671V33.3334C6.66666 34.2174 7.01785 35.0653 7.64297 35.6904C8.2681 36.3155 9.11594 36.6667 10 36.6667H30C30.8841 36.6667 31.7319 36.3155 32.357 35.6904C32.9821 35.0653 33.3333 34.2174 33.3333 33.3334V13.3334L23.3333 3.33337ZM15.2583 29.09C14.5483 29.68 13.47 29.9584 12.1517 29.9584C11.36 29.9584 10.8017 29.9084 10.4217 29.8584V23.24C11.1033 23.1419 11.7914 23.0956 12.48 23.1017C13.76 23.1017 14.59 23.3317 15.2383 23.8217C15.9383 24.3417 16.3783 25.1717 16.3783 26.3584C16.3783 27.65 15.9083 28.54 15.2583 29.09ZM20.2417 30C18.2417 30 17.0733 28.49 17.0733 26.57C17.0733 24.5517 18.3617 23.0434 20.3517 23.0434C22.42 23.0434 23.55 24.5917 23.55 26.4517C23.5483 28.66 22.2083 30 20.2417 30ZM28 28.73C28.4583 28.73 28.9683 28.6284 29.27 28.51L29.5 29.6984C29.22 29.8384 28.59 29.9884 27.7717 29.9884C25.4433 29.9884 24.2433 28.54 24.2433 26.62C24.2433 24.3217 25.8817 23.0434 27.9217 23.0434C28.7117 23.0434 29.31 23.2034 29.58 23.3434L29.27 24.5534C28.8642 24.3857 28.4291 24.3007 27.99 24.3034C26.78 24.3034 25.84 25.0334 25.84 26.5334C25.84 27.8817 26.64 28.73 28 28.73ZM23.3333 15H21.6667V6.66671L30 15H23.3333Z" fill="#FDB00E"/>
<path d="M12.64 24.2716C12.3017 24.2716 12.0817 24.3016 11.9517 24.3316V28.7399C12.0817 28.7699 12.2917 28.7699 12.48 28.7699C13.86 28.7799 14.7583 28.0216 14.7583 26.4116C14.7683 25.0116 13.95 24.2716 12.64 24.2716Z" fill="#FDB00E"/>
</svg>
