<svg width="40" height="40" viewBox="0 0 40 40" fill="none" xmlns="http://www.w3.org/2000/svg">
<path d="M13.2322 27.334H14.3078C14.606 27.334 14.8367 27.2291 15 27.0191C15.1633 26.8093 15.2449 26.5041 15.2449 26.1035C15.2449 25.6875 15.1615 25.3575 14.9947 25.1133C14.8278 24.8653 14.6042 24.7393 14.3237 24.7355H13.2322V27.334Z" fill="#FDB00E"/>
<path d="M19.4408 24.7355V30.2701H19.9095C20.4313 30.2701 20.7987 30.1231 21.0117 29.8295C21.2247 29.5318 21.3365 29.0205 21.3472 28.2955V26.8475C21.3472 26.0691 21.246 25.5273 21.0437 25.222C20.8413 24.913 20.497 24.7508 20.0107 24.7355H19.4408Z" fill="#FDB00E"/>
<path fill-rule="evenodd" clip-rule="evenodd" d="M33.2283 14.4667L33.2127 14.42C33.2007 14.3829 33.1887 14.3465 33.1733 14.31C33.0917 14.1334 32.99 13.965 32.8467 13.8217L22.8467 3.82171C22.7033 3.67837 22.535 3.57671 22.3583 3.49504C22.3238 3.47897 22.2878 3.46764 22.2513 3.45616C22.2348 3.45097 22.2183 3.44574 22.2017 3.44004C22.0617 3.39337 21.9183 3.36337 21.77 3.35504C21.7532 3.35351 21.7373 3.34879 21.7217 3.34416C21.7035 3.33871 21.6855 3.33337 21.6667 3.33337H10C8.16166 3.33337 6.66666 4.82837 6.66666 6.66671V33.3334C6.66666 35.1717 8.16166 36.6667 10 36.6667H30C31.8383 36.6667 33.3333 35.1717 33.3333 33.3334V15C33.3333 14.9812 33.328 14.9632 33.3225 14.945C33.3178 14.9294 33.3132 14.9136 33.3117 14.8967C33.3033 14.75 33.275 14.6067 33.2283 14.4667ZM21.6667 6.66671V15H30L21.6667 6.66671ZM13.2322 28.7364V31.6667H11.6667V23.3334H14.3078C15.0745 23.3334 15.6851 23.589 16.1395 24.1004C16.5974 24.6115 16.8263 25.2755 16.8263 26.092C16.8263 26.9085 16.601 27.5535 16.1502 28.0265C15.6993 28.4997 15.0745 28.7364 14.2758 28.7364H13.2322ZM17.8753 31.6667V23.3334H19.9255C20.8307 23.3334 21.5513 23.6424 22.0873 24.2605C22.6268 24.8787 22.902 25.7257 22.9127 26.8017V28.1525C22.9127 29.2475 22.6428 30.108 22.1033 30.7337C21.5673 31.3557 20.8272 31.6667 19.8828 31.6667H17.8753ZM25.607 28.267H28.0405V26.8705H25.607V24.7355H28.3333V23.3334H24.0415V31.6667H25.607V28.267Z" fill="#FDB00E"/>
</svg>
