<svg width="73" height="73" viewBox="0 0 73 73" fill="none" xmlns="http://www.w3.org/2000/svg">
<path d="M71.2335 37.5C68.228 45.9242 63.2335 52.8333 60.2335 55C63.2335 50.5 65.7335 43 66.7335 34.5C67.5072 27.924 63.6671 20.818 61.4538 17.7945C61.3166 17.6071 61.0973 17.5 60.8651 17.5C60.5006 17.5 60.1896 17.7635 60.1297 18.123L59.778 20.233C59.7484 20.4107 59.7335 20.5905 59.7335 20.7707V28.5C59.7335 29.5591 59.9932 30.9558 60.1687 31.7275C60.2101 31.9092 60.2335 32.0942 60.2335 32.2805V32.6972C60.2335 33.1988 59.9829 33.6671 59.5656 33.9453C59.0617 34.2812 58.4053 34.2812 57.9015 33.9453L57.5797 33.7308C57.3512 33.5784 57.1551 33.3824 57.0028 33.1538L56.8357 32.9033C56.4431 32.3143 56.2335 31.6222 56.2335 30.9144L56.2335 27.7906C56.2335 27.5981 56.2025 27.4069 56.1416 27.2243L56.0498 26.9487C55.8609 26.3821 55.3307 26 54.7335 26C54.0815 26 53.444 26.193 52.9015 26.5547L51.8175 27.2774C51.1001 27.7556 50.4692 28.3524 49.9519 29.0422L49.2335 30L46.7335 33.5L44.2335 36.5L42.5442 38.1893C42.3453 38.3883 42.0755 38.5 41.7942 38.5H41.7335C41.1812 38.5 40.7335 38.0523 40.7335 37.5C40.7335 36.8493 40.935 36.2146 41.3102 35.683L46.5349 28.2814C46.6572 28.1081 46.6744 27.8816 46.5795 27.692C46.4071 27.3471 45.9509 27.266 45.6702 27.5302L38.3534 34.4166C37.9552 34.7913 37.4291 35 36.8823 35H36.4215C35.9917 35 35.5903 34.7852 35.3519 34.4276C34.9971 33.8954 35.0876 33.1832 35.5643 32.7566L43.647 25.5248C43.9655 25.2398 43.9792 24.7457 43.677 24.4435C43.4207 24.1872 43.0172 24.1527 42.7212 24.3617L35.0288 29.7916C34.8367 29.9272 34.6073 30 34.3721 30H34.2386C33.6835 30 33.2335 29.55 33.2335 28.9949C33.2335 28.6829 33.3774 28.3891 33.6253 28.1997C35.9263 26.4419 40.2241 23.2547 41.7335 22.5C43.3335 21.7 42.7335 21.1667 42.2335 21C41.255 20.6738 40.2024 20.6416 39.2058 20.9074L34.8796 22.0611C33.7869 22.3524 31.7221 22.6234 32.2098 21.6031C32.3441 21.3222 32.6574 20.9609 33.2335 20.5C34.7007 19.3263 37.5131 18.4396 39.6971 17.9188C41.0377 17.5992 42.3556 17.1742 43.5764 16.5347L49.6294 13.364C51.3439 12.466 52.8361 11.1965 53.9973 9.64824L61.0828 0.200951C61.1777 0.0744477 61.3266 2.76476e-08 61.4847 0C61.6415 -2.74135e-08 61.7871 0.070198 61.8818 0.19519C64.6034 3.7894 70.0553 11.5727 71.2335 15.5C72.7335 20.5 73.5526 31 71.2335 37.5Z" fill="#FDE40A"/>
<path d="M1.44824 35C4.45377 26.5758 9.44824 19.6667 12.4482 17.5C9.44825 22 6.94824 29.5 5.94824 38C5.17458 44.576 9.01465 51.682 11.228 54.7055C11.3652 54.8928 11.5844 55 11.8167 55C12.1811 55 12.4922 54.7365 12.5521 54.377L12.9037 52.267C12.9334 52.0893 12.9482 51.9095 12.9482 51.7293V44C12.9482 42.9409 12.6886 41.5442 12.513 40.7725C12.4717 40.5908 12.4482 40.4058 12.4482 40.2195V39.8028C12.4482 39.3012 12.6989 38.8329 13.1162 38.5547C13.62 38.2188 14.2764 38.2188 14.7803 38.5547L15.1021 38.7692C15.3306 38.9216 15.5267 39.1176 15.679 39.3461L15.846 39.5967C16.2387 40.1857 16.4482 40.8777 16.4482 41.5856V44.7094C16.4482 44.9019 16.4793 45.0931 16.5401 45.2757L16.632 45.5513C16.8209 46.1179 17.351 46.5 17.9482 46.5C18.6003 46.5 19.2377 46.307 19.7803 45.9453L20.8643 45.2226C21.5817 44.7444 22.2126 44.1476 22.7299 43.4578L23.4482 42.5L25.9482 39L28.4482 36L30.1376 34.3107C30.3365 34.1117 30.6063 34 30.8876 34H30.9482C31.5005 34 31.9482 34.4477 31.9482 35C31.9482 35.6507 31.7468 36.2854 31.3715 36.817L26.1468 44.2186C26.0245 44.3919 26.0074 44.6183 26.1022 44.808C26.2747 45.1529 26.7308 45.234 27.0116 44.9698L34.3284 38.0834C34.7265 37.7087 35.2527 37.5 35.7995 37.5H36.2603C36.6901 37.5 37.0914 37.7148 37.3298 38.0724C37.6847 38.6047 37.5941 39.3168 37.1174 39.7434L29.0348 46.9752C28.7162 47.2602 28.7025 47.7543 29.0048 48.0565C29.261 48.3128 29.6645 48.3473 29.9606 48.1383L37.653 42.7084C37.8451 42.5728 38.0745 42.5 38.3096 42.5H38.4431C38.9982 42.5 39.4482 42.95 39.4482 43.5051C39.4482 43.8171 39.3044 44.1109 39.0564 44.3003C36.7555 46.0581 32.4576 49.2453 30.9482 50C29.3482 50.8 29.9482 51.3333 30.4482 51.5C31.4267 51.8262 32.4794 51.8584 33.476 51.5926L37.8022 50.4389C38.8949 50.1476 40.9597 49.8766 40.472 50.8969C40.3377 51.1778 40.0243 51.5391 39.4482 52C37.9811 53.1737 35.1686 54.0604 32.9846 54.5812C31.6441 54.9008 30.3262 55.3258 29.1054 55.9653L23.0523 59.136C21.3379 60.034 19.8456 61.3035 18.6844 62.8518L11.5989 72.299C11.5041 72.4256 11.3552 72.5 11.197 72.5C11.0403 72.5 10.8946 72.4298 10.8 72.3048C8.07832 68.7106 2.62644 60.9273 1.44824 57C-0.0517563 52 -0.870788 41.5 1.44824 35Z" fill="#FDAF0A"/>
</svg>
